<svg width="32" height="33" viewBox="0 0 32 33" fill="none" xmlns="http://www.w3.org/2000/svg">
<path d="M27.1964 24.4821C24.7143 27.9821 20.625 30.2857 16 30.2857C11.375 30.2857 7.28571 27.9821 4.80357 24.4821C5.26786 21.1429 6.625 18.1786 9.66072 17.7679C11.2321 19.4821 13.5 20.5714 16 20.5714C18.5 20.5714 20.7679 19.4821 22.3393 17.7679C25.375 18.1786 26.7321 21.1429 27.1964 24.4821ZM22.8571 12C22.8571 15.7857 19.7857 18.8571 16 18.8571C12.2143 18.8571 9.14286 15.7857 9.14286 12C9.14286 8.21428 12.2143 5.14286 16 5.14286C19.7857 5.14286 22.8571 8.21428 22.8571 12ZM32 16.5714C32 7.73214 24.8393 0.571426 16 0.571426C7.16071 0.571426 0 7.73214 0 16.5714C0 25.3929 7.16071 32.5714 16 32.5714C24.8571 32.5714 32 25.375 32 16.5714Z" fill="#5F288D"/></svg>