<?xml version="1.0" encoding="iso-8859-1"?>
<!-- Generator: Adobe Illustrator 16.0.0, SVG Export Plug-In . SVG Version: 6.00 Build 0)  -->
<!DOCTYPE svg PUBLIC "-//W3C//DTD SVG 1.1//EN" "http://www.w3.org/Graphics/SVG/1.1/DTD/svg11.dtd">
<svg xmlns="http://www.w3.org/2000/svg" xmlns:xlink="http://www.w3.org/1999/xlink" version="1.1" id="Capa_1" x="0px" y="0px" width="512px" height="512px" viewBox="0 0 495.295 495.295" style="enable-background:new 0 0 495.295 495.295;" xml:space="preserve">
<g>
	<g>
		<path d="M376.816,3.929c-65.333,0-118.476,53.143-118.476,118.476c0,13.258,2.284,25.97,6.32,37.888l-22.522,8.816    c-8.905,3.485-9.728,10.682-1.839,16.084l50.946,31.214c-3.727,0.962-6.532,4.198-6.532,8.217v45.497    c0,4.776,3.879,8.655,8.656,8.655h66.467c0.269,7.029-0.865,16.398-6.6,25.72c-11.462,18.631-37.75,31.603-76.374,37.919V271.73    c0-4.776-3.879-8.655-8.647-8.655h-45.491c-4.781,0-8.66,3.879-8.66,8.655v18.17l-32.801-53.523    c-5.4-7.893-12.599-7.065-16.083,1.835l-8.816,22.525c-11.918-4.035-24.626-6.321-37.884-6.321c-7.586,0-14.98,0.783-22.171,2.149    v32.212c7.089-1.859,14.495-2.957,22.171-2.957c48.011,0,87.075,39.06,87.075,87.062c0,48.021-39.064,87.081-87.075,87.081    c-30.619,0-57.537-15.926-73.063-39.882H9.866c18.278,41.897,60.059,71.284,108.613,71.284c45.462,0,84.963-25.769,104.822-63.434    h44.914c4.769,0,8.647-3.88,8.647-8.656v-53.019c48.229-7.221,80.666-23.796,96.427-49.42    c8.46-13.737,10.383-27.431,10.091-38.054h57.543c4.769-0.009,8.647-3.888,8.647-8.664v-45.488c0-2.667-1.271-4.959-3.166-6.555    c29.563-21.565,48.891-56.366,48.891-95.673C495.295,57.071,442.141,3.929,376.816,3.929z M376.816,209.472    c-48.005,0-87.073-39.064-87.073-87.067c0-48.015,39.068-87.076,87.073-87.076c48.018,0,87.077,39.061,87.077,87.076    C463.893,170.407,424.833,209.472,376.816,209.472z" fill="#FFDA44"/>
		<path d="M2.104,394.715v-43.637C0.777,358.163,0,365.437,0,372.895C0,380.348,0.777,387.621,2.104,394.715z" fill="#FFDA44"/>
	</g>
</g>
<g>
</g>
<g>
</g>
<g>
</g>
<g>
</g>
<g>
</g>
<g>
</g>
<g>
</g>
<g>
</g>
<g>
</g>
<g>
</g>
<g>
</g>
<g>
</g>
<g>
</g>
<g>
</g>
<g>
</g>
</svg>
