<?xml version="1.0" encoding="iso-8859-1"?>
<!DOCTYPE svg PUBLIC "-//W3C//DTD SVG 1.1//EN" "http://www.w3.org/Graphics/SVG/1.1/DTD/svg11.dtd">
<svg xmlns="http://www.w3.org/2000/svg" xmlns:xlink="http://www.w3.org/1999/xlink" version="1.1" viewBox="0 0 215.203 215.203" enable-background="new 0 0 215.203 215.203" width="512px" height="512px">
  <g>
    <path d="m17.106,88.947h4.842c-0.033,0.253-0.055,0.509-0.055,0.771v94.282h-3.291c-3.313,0-6,2.687-6,6s2.687,6 6,6h9.291 22.773 22.774 22.774 22.773 22.774 22.774 22.773 9.291c3.313,0 6-2.687 6-6s-2.687-6-6-6h-3.291v-94.282c0-0.262-0.022-0.518-0.055-0.771h4.842c4.521,0 8.511-2.885 9.927-7.179s-0.075-8.986-3.71-11.676l-93.142-68.915c-2.119-1.569-5.018-1.569-7.137-6.66134e-15l-93.145,68.915c-3.634,2.689-5.125,7.382-3.709,11.676s5.405,7.179 9.927,7.179zm95.882,95.053h-10.773v-94.282c0-0.262-0.022-0.518-0.055-0.771h10.884c-0.033,0.253-0.055,0.509-0.055,0.771v94.282zm-45.548,0h-10.775v-94.282c0-0.262-0.022-0.518-0.055-0.771h10.885c-0.033,0.253-0.055,0.509-0.055,0.771v94.282zm-33.548,0v-88.282h10.773v88.282h-10.773zm45.548,0v-88.282h10.774v88.282h-10.774zm45.547,0v-88.282h10.774v88.282h-10.774zm45.549,0v-88.282h10.773v88.282h-10.773zm-12-94.282v94.282h-10.774v-94.282c0-0.262-0.022-0.518-0.055-0.771h10.885c-0.033,0.253-0.056,0.509-0.056,0.771zm-50.935-76.254l85.802,63.482h-171.604l85.802-63.482z" fill="#FFDA44"/>
    <path d="m207.874,203.203h-200.545c-3.313,0-6,2.687-6,6s2.687,6 6,6h200.545c3.313,0 6-2.687 6-6s-2.686-6-6-6z" fill="#FFDA44"/>
  </g>
</svg>
